HIERARCHY
ROOT Hips
{
	OFFSET -0.179506 -22.333345 2.821913
	CHANNELS 6 Xposition Yposition Zposition Zrotation Yrotation Xrotation 
	JOINT LeftUpLeg
	{
		OFFSET 6.951974 -9.140623 -0.681533
		CHANNELS 3 Zrotation Yrotation Xrotation
		JOINT LeftLeg
		{
			OFFSET 3.427654 -37.519855 -0.449580
			CHANNELS 3 Zrotation Yrotation Xrotation
			JOINT LeftFoot
			{
				OFFSET -1.359570 -39.796059 -4.369333
				CHANNELS 3 Zrotation Yrotation Xrotation
				JOINT LeftToe
				{
					OFFSET 2.635814 -5.579078 11.928840
					CHANNELS 3 Zrotation Yrotation Xrotation
					End Site
					{
						OFFSET 0.000000 0.000000 0.000000
					}
				}
			}
		}
	}
	JOINT RightUpLeg
	{
		OFFSET -6.767048 -9.052170 -0.431982
		CHANNELS 3 Zrotation Yrotation Xrotation
		JOINT RightLeg
		{
			OFFSET -3.829005 -38.256897 -0.885003
			CHANNELS 3 Zrotation Yrotation Xrotation
			JOINT RightFoot
			{
				OFFSET 1.577377 -39.841461 -4.231180
				CHANNELS 3 Zrotation Yrotation Xrotation
				JOINT RightToe
				{
					OFFSET -2.537174 -4.814398 12.334795
					CHANNELS 3 Zrotation Yrotation Xrotation
					End Site
					{
						OFFSET 0.000000 0.000000 0.000000
					}
				}
			}
		}
	}
	JOINT Spine
	{
		OFFSET -0.253288 10.896323 -2.669631
		CHANNELS 3 Zrotation Yrotation Xrotation
		JOINT Spine1
		{
			OFFSET 0.548704 13.518043 0.109247
			CHANNELS 3 Zrotation Yrotation Xrotation
			JOINT Spine2
			{
				OFFSET 0.145701 5.292222 2.542457
				CHANNELS 3 Zrotation Yrotation Xrotation
				JOINT Neck
				{
					OFFSET -0.277840 21.387037 -4.285703
					CHANNELS 3 Zrotation Yrotation Xrotation
					JOINT Head
					{
						OFFSET 0.515184 6.496960 5.134897
						CHANNELS 3 Zrotation Yrotation Xrotation
						End Site
						{
							OFFSET 0.000000 0.000000 0.000000
						}
					}
				}
				JOINT LeftShoulder
				{
					OFFSET 7.884473 12.174932 -3.408961
					CHANNELS 3 Zrotation Yrotation Xrotation
					JOINT LeftArm
					{
						OFFSET 9.097692 3.046888 -0.886815
						CHANNELS 3 Zrotation Yrotation Xrotation
						JOINT LeftForeArm
						{
							OFFSET 25.961220 -1.277207 -2.745643
							CHANNELS 3 Zrotation Yrotation Xrotation
							JOINT LeftHand
							{
								OFFSET 24.923361 0.898606 -0.117091
								CHANNELS 3 Zrotation Yrotation Xrotation
								End Site
								{
									OFFSET 0.000000 0.000000 0.000000
								}
							}
						}
					}
				}
				JOINT RightShoulder
				{
					OFFSET -8.175920 11.883285 -3.861528
					CHANNELS 3 Zrotation Yrotation Xrotation
					JOINT RightArm
					{
						OFFSET -9.601238 3.255117 -0.914307
						CHANNELS 3 Zrotation Yrotation Xrotation
						JOINT RightForeArm
						{
							OFFSET -25.374195 -1.332924 -2.140099
							CHANNELS 3 Zrotation Yrotation Xrotation
							JOINT RightHand
							{
								OFFSET -25.529810 0.777228 -0.555919
								CHANNELS 3 Zrotation Yrotation Xrotation
								End Site
								{
									OFFSET 0.000000 0.000000 0.000000
								}
							}
						}
					}
				}
			}
		}
	}
}
MOTION
Frames: 13
Frame Time: 0.033333
-117.715195 117.134369 -27.449438 1.607487 -52.766809 -10.690455 3.351562 -2.770239 -6.724973 -5.018545 -3.362042 41.995369 3.796145 14.909159 -13.125349 1.014471 -1.263802 -0.426716 -2.185479 -0.584465 0.260523 -0.632989 5.499519 3.879212 -0.743699 -11.794731 -7.620307 -0.170060 0.484999 -1.597493 2.813743 1.266286 12.302675 -0.296630 -2.620106 -4.641989 1.792231 -1.058213 9.604527 -8.027189 -0.861370 1.731854 -3.019747 3.428263 -7.791582 -20.248530 1.762393 -0.588098 -54.841111 -6.437967 7.688035 0.817810 -6.384128 -11.648074 5.054782 -1.781553 -18.006958 18.348482 2.012175 0.045325 54.522906 0.617403 13.401284 -0.425084 14.229666 -1.464715 -1.727900 2.075408 -3.672049 
-118.263885 117.516434 -26.931826 1.843774 -49.073994 -11.302701 4.115473 -3.603735 -11.979472 -5.019567 -2.216071 41.731774 3.913127 15.674463 -12.039120 0.718056 -1.176616 -0.444860 -3.159093 -1.547632 1.888000 -0.350794 6.096441 4.006908 -0.464507 -13.514314 -7.254056 -0.033812 0.396616 -1.765262 2.818398 2.805085 13.631061 -0.466527 -2.267503 -5.092468 1.862119 -0.240514 9.756456 -7.903551 -0.915403 1.179648 -1.836356 4.451021 -8.529664 -18.802908 1.751973 -1.897246 -49.242767 -7.550203 4.052479 3.809770 -9.948880 -18.388162 6.934983 -0.284585 -21.650618 17.723778 2.090266 -0.003709 51.778691 1.293884 12.539106 -0.920264 17.780889 -2.648527 -0.155268 1.212011 -3.426902 
-118.949844 117.778702 -25.077723 0.904192 -44.856214 -10.151277 4.773120 -3.462118 -15.906970 -4.850444 -1.064002 37.023496 3.679858 16.113841 -10.304163 0.643248 -1.159520 -0.544524 -4.033574 -3.122041 3.386157 0.186773 5.842442 4.081835 0.071352 -14.636107 -7.206734 -0.022732 0.558891 -2.063916 2.683300 4.098169 14.734219 -0.836487 -1.784372 -5.695240 1.986756 0.366574 9.920397 -7.311177 -0.686707 0.329147 -0.950703 5.176427 -9.598857 -17.738061 1.933650 -3.539400 -41.666037 -7.961436 0.339345 8.244971 -17.482482 -25.315458 10.180074 0.804720 -23.311583 17.532504 1.792314 0.004405 47.308480 1.679399 11.105645 -1.549964 21.295538 -4.447137 0.196593 0.613432 -1.964886 
-119.780228 117.902634 -24.019751 0.436561 -40.848826 -9.979114 4.218783 -3.423852 -18.477379 -4.293774 -0.902012 31.264956 3.275245 16.307831 -8.483711 0.570444 -1.154475 -0.548657 -4.225250 -4.098831 5.425096 0.125792 5.359270 3.865849 0.433083 -15.712250 -7.510623 -0.015153 0.635289 -2.354070 3.004035 4.859475 16.095864 -0.898074 -1.634303 -6.224563 2.076198 0.828550 9.758184 -6.684166 -0.290530 -0.360982 0.145227 6.716655 -11.450402 -17.032827 1.762345 -4.847647 -33.813800 -6.879727 -2.241361 14.896424 -26.631315 -32.299480 13.220901 1.109713 -23.441678 17.117617 1.356353 -0.027085 41.562943 0.948588 8.569316 -3.559824 25.571415 -8.760797 -1.659509 0.254668 -1.858506 
-120.144630 117.879913 -22.413061 -0.219722 -36.645984 -9.728243 3.712628 -2.839162 -20.273812 -3.668816 -0.267287 23.705230 2.265798 16.042145 -5.775722 0.516049 -1.128914 -0.680249 -4.940810 -5.156134 8.033185 0.570228 5.002569 2.965456 0.828316 -16.580079 -7.526034 0.214624 0.680383 -2.609959 3.443860 5.382445 17.269488 -0.954510 -1.496569 -6.897887 2.253137 1.208279 9.913173 -6.154373 0.047104 -1.681873 0.647252 7.987980 -13.483575 -16.085561 1.643148 -6.297710 -26.217313 -5.347204 -4.504888 22.462487 -34.682191 -38.711031 16.329126 0.889496 -20.804013 16.143504 0.906793 -0.379211 34.390625 -0.189798 5.680706 -6.141163 30.966827 -12.874644 -3.584878 0.269266 -1.117626 
-121.190926 117.735489 -20.917311 -0.004438 -33.586465 -10.018177 3.482571 -2.099557 -22.372685 -3.900437 0.368048 18.101051 0.825007 15.480067 -2.999422 0.394913 -1.067170 -0.799094 -5.855943 -6.441044 10.354920 0.924575 5.260654 2.698628 1.187814 -16.669662 -8.530864 0.408464 0.689052 -2.794474 3.685629 6.030314 18.274925 -1.092164 -1.511291 -7.448669 2.448390 1.523676 10.143187 -5.952718 0.325616 -2.640181 0.865276 8.984929 -16.392288 -14.304441 1.915348 -7.737555 -19.863330 -3.891111 -7.131981 30.000223 -40.216337 -46.072981 18.815726 1.005933 -19.762733 13.980058 0.538036 -1.113332 28.514405 -0.965830 2.425362 -9.509772 35.003692 -17.890877 -5.384859 -0.151204 -1.195151 
-123.048439 117.581772 -19.719280 0.911397 -30.217131 -10.403713 3.554989 -1.417094 -25.232006 -4.596096 1.140025 16.340234 -0.092819 15.221462 -2.503057 0.290133 -0.946999 -0.640647 -6.577200 -7.332647 12.175843 1.199638 6.207873 3.285681 1.283900 -17.004097 -9.904824 0.724342 0.764524 -2.835511 3.521203 6.751629 18.645018 -0.840787 -1.872185 -8.156088 2.616042 1.673274 10.813864 -5.538795 1.025636 -3.194594 1.044358 8.941159 -19.998180 -11.665771 3.135203 -9.391527 -14.065062 -2.591880 -9.951656 37.734301 -43.559405 -53.418301 22.761070 0.342633 -18.526654 11.768356 -0.104983 -2.631216 23.995796 -1.754930 -0.678600 -15.538519 39.729276 -24.242735 -9.360350 0.716050 -2.668083 
-124.601242 117.469452 -20.415545 2.563480 -27.135943 -11.962977 3.677454 -0.930160 -28.464618 -5.309530 2.246134 16.593501 -0.196356 15.307168 -4.012518 0.259311 -0.962391 -0.498157 -7.027426 -7.915619 13.511795 0.874665 7.095412 3.905911 1.426636 -17.455542 -11.250374 0.901349 0.836178 -2.999836 3.200528 7.505217 18.687450 -0.469645 -2.243876 -8.871781 2.677925 1.748023 11.366525 -5.080154 1.389647 -3.234192 0.927058 8.092395 -22.787760 -8.946068 4.559395 -10.851046 -9.728120 -1.743824 -12.250581 42.752287 -44.582371 -57.758420 25.713191 -1.025362 -17.428720 9.451780 -0.811556 -4.708138 21.663874 -1.968959 -2.836426 -23.662381 44.333242 -31.513331 -13.605343 2.126581 -6.008961 
-125.491524 117.450531 -20.706537 3.403146 -24.659019 -13.102173 4.439443 -1.050755 -30.584927 -6.335203 3.460375 19.806386 -0.214950 15.553427 -3.948224 0.123504 -1.008272 -0.284251 -7.557815 -8.408743 14.636166 1.176627 7.596824 4.675854 1.368679 -17.109005 -10.948922 1.177130 0.943056 -3.121852 2.749265 8.276485 18.296298 -0.024893 -2.487371 -9.454395 2.711717 1.761162 11.626210 -4.531471 2.695813 -3.375983 0.788244 7.708911 -23.828910 -6.407979 5.857778 -11.352302 -6.734306 -0.692939 -14.104022 46.096790 -45.520568 -60.861926 27.150063 -2.742144 -18.121619 7.864669 -2.071181 -5.996132 19.862942 -2.238865 -4.272771 -34.716282 50.147461 -41.358145 -14.984027 2.700861 -10.739327 
-125.809677 117.492340 -20.635029 4.117886 -22.492916 -13.596897 4.824620 -1.324146 -32.388460 -6.910985 4.418008 22.533800 -0.226908 15.485301 -4.481102 0.199282 -1.092077 -0.312962 -7.870458 -8.240028 14.979993 1.006934 8.300121 5.586129 1.633506 -16.985779 -10.258128 1.470149 1.067734 -3.178547 2.220333 8.769092 18.017479 0.231011 -2.620813 -10.373906 2.821185 1.626111 11.890611 -4.127601 3.042519 -3.717239 0.910785 7.617776 -24.246021 -4.777080 6.850097 -11.615394 -4.673426 0.661079 -15.524313 49.899234 -46.051870 -63.977924 27.992634 -4.111432 -17.734169 6.463434 -3.331868 -7.061095 18.696669 -2.141271 -5.316597 -50.389836 55.763341 -54.725115 -16.022268 3.895062 -13.387508 
-125.725861 117.569016 -20.146435 4.328079 -20.952595 -13.551093 4.997999 -1.339820 -33.361781 -7.691155 5.629812 25.049726 -0.184687 15.414027 -5.181674 0.231127 -1.118172 -0.293922 -7.945848 -8.062248 15.118316 0.738266 8.781046 6.206925 2.361921 -16.517272 -9.386985 1.542814 1.086565 -3.180042 1.893704 9.062934 17.565116 0.365610 -2.604315 -10.634556 2.735164 1.553599 11.967654 -3.571785 2.832979 -3.579228 0.974193 7.515529 -24.143824 -3.842496 7.326749 -11.586614 -3.489606 2.178266 -16.305590 52.593565 -46.701291 -66.414334 27.702351 -4.654229 -18.229724 5.239051 -3.863429 -7.449724 16.904767 -1.761716 -6.258435 -68.057371 59.213511 -70.299296 -15.563676 4.973471 -14.921466 
-126.230797 117.661163 -18.682114 4.552879 -19.228603 -12.011262 4.997463 -1.367054 -32.793098 -6.915417 5.935734 24.475957 0.130024 15.111871 -4.916170 0.260104 -0.967722 -0.444861 -7.759174 -7.692258 15.294637 0.432671 8.869181 5.313586 3.026692 -16.419880 -8.838724 1.720920 0.938637 -3.042704 1.717875 8.929628 17.005794 0.108076 -2.679821 -11.107554 2.930462 1.335431 12.381237 -3.515892 2.360266 -4.180877 1.134246 8.073319 -24.748199 -4.232661 6.882237 -11.404185 -3.533178 3.411775 -16.838487 55.178463 -46.734420 -68.761262 27.999840 -4.185339 -16.482586 4.118651 -3.796336 -7.526989 15.700629 -1.335297 -7.716696 -85.523669 59.580386 -86.388889 -15.723886 6.177938 -12.916372 
-126.161217 117.713043 -18.302319 4.235110 -17.020936 -11.057406 4.748196 -1.393947 -31.002352 -6.283830 5.552268 21.818727 0.189478 15.035486 -4.993667 0.329867 -0.911452 -0.469140 -7.190048 -7.491199 14.843633 0.539674 8.526388 5.791211 3.073245 -16.862880 -8.678903 1.711372 0.898136 -2.966892 1.816968 8.399207 16.747393 0.034924 -2.718804 -11.485773 2.924259 1.101528 12.584171 -3.254494 2.468922 -4.219230 1.071476 8.661735 -24.618173 -5.094654 6.598242 -11.111833 -4.969858 3.967781 -16.565374 56.233113 -47.127286 -69.180215 29.069832 -4.269157 -15.434963 4.238710 -3.631520 -7.503114 15.242008 -1.392085 -8.281582 -92.916144 59.137511 -92.892959 -17.115481 7.280365 -10.891733 
